<?xml version="1.0" encoding="UTF-8"?>
<svg width="20px" height="17px" viewBox="0 0 20 17" version="1.1" xmlns="http://www.w3.org/2000/svg" xmlns:xlink="http://www.w3.org/1999/xlink">
    <g id="Page-1" stroke="none" stroke-width="1" fill="currentColor" fill-rule="evenodd">
        <g id="Group" transform="translate(0.000000, 0.500000)" fill="currentColor" fill-rule="nonzero">
            <path d="M19,14 C19.5522847,14 20,14.4477153 20,15 C20,15.5522847 19.5522847,16 19,16 L4,16 C3.44771525,16 3,15.5522847 3,15 C3,14.4477153 3.44771525,14 4,14 L19,14 Z" id="Line" transform="translate(11.500000, 15.000000) rotate(360.000000) translate(-11.500000, -15.000000) "></path>
            <path d="M19,7 C19.5522847,7 20,7.44771525 20,8 C20,8.55228475 19.5522847,9 19,9 L8,9 C7.44771525,9 7,8.55228475 7,8 C7,7.44771525 7.44771525,7 8,7 L19,7 Z" id="Line" transform="translate(13.500000, 8.000000) rotate(360.000000) translate(-13.500000, -8.000000) "></path>
            <path d="M19,0 C19.5522847,0 20,0.44771525 20,1 C20,1.55228475 19.5522847,2 19,2 L1,2 C0.44771525,2 5.68434189e-14,1.55228475 5.68434189e-14,1 C5.68434189e-14,0.44771525 0.44771525,7.10542736e-15 1,7.10542736e-15 L19,0 Z" id="Line" transform="translate(10.000000, 1.000000) rotate(360.000000) translate(-10.000000, -1.000000) "></path>
        </g>
    </g>
</svg>