<?xml version="1.0" encoding="UTF-8"?>
<svg width="15px" height="26px" viewBox="0 0 15 26" version="1.1" xmlns="http://www.w3.org/2000/svg" xmlns:xlink="http://www.w3.org/1999/xlink">
    <!-- Generator: Sketch 53.2 (72643) - https://sketchapp.com -->
    <title>Group</title>
    <desc>Created with Sketch.</desc>
    <g id="Page-1" stroke="none" stroke-width="1" fill="none" fill-rule="evenodd">
        <g id="Group" transform="translate(0.500000, 0.500000)" fill="#75ECAD" fill-rule="nonzero">
            <path d="M0.439339828,2.56066017 C-0.146446609,1.97487373 -0.146446609,1.02512627 0.439339828,0.439339828 C1.02512627,-0.146446609 1.97487373,-0.146446609 2.56066017,0.439339828 L13.5606602,11.4393398 C14.1464466,12.0251263 14.1464466,12.9748737 13.5606602,13.5606602 C12.9748737,14.1464466 12.0251263,14.1464466 11.4393398,13.5606602 L0.439339828,2.56066017 Z" id="Line"></path>
            <path d="M0.439339828,13.5606602 C-0.146446609,12.9748737 -0.146446609,12.0251263 0.439339828,11.4393398 C1.02512627,10.8535534 1.97487373,10.8535534 2.56066017,11.4393398 L13.5606602,22.4393398 C14.1464466,23.0251263 14.1464466,23.9748737 13.5606602,24.5606602 C12.9748737,25.1464466 12.0251263,25.1464466 11.4393398,24.5606602 L0.439339828,13.5606602 Z" id="Line" transform="translate(7.000000, 18.000000) scale(-1, 1) translate(-7.000000, -18.000000) "></path>
        </g>
    </g>
</svg>