<?xml version="1.0" encoding="UTF-8"?>
<svg width="77px" height="20px" viewBox="0 0 77 20" version="1.1" xmlns="http://www.w3.org/2000/svg" xmlns:xlink="http://www.w3.org/1999/xlink">
    <g id="Page-1" stroke="none" stroke-width="1" fill="none" fill-rule="evenodd">
        <g id="logo-inline" fill="currentColor">
            <path d="M0,0.531 L5.988,0.531 L5.988,14.666 L15.002,14.666 L15.002,19.466 L0,19.466 L0,0.531 Z M17.452,0.531 L33.398,0.531 L33.398,4.771 L23.44,4.771 L23.44,7.84 L32.95,7.84 L32.95,11.866 L23.44,11.866 L23.44,15.226 L33.584,15.226 L33.584,19.466 L17.452,19.466 L17.452,0.531 Z M49.277,0.531 L56.211,0.531 L49.171,8.211 L56.448,19.466 L49.642,19.466 L44.942,12.053 L42.576,14.559 L42.576,19.466 L36.588,19.466 L36.588,0.531 L42.576,0.531 L42.576,7.946 L49.276,0.531 L49.277,0.531 Z M66.151,4.561 C63.315,4.561 61.528,6.639 61.528,9.999 C61.528,13.361 63.315,15.439 66.151,15.439 C68.99,15.439 70.775,13.361 70.775,9.999 C70.775,6.639 68.99,4.56 66.151,4.56 L66.151,4.561 Z M66.151,0 C72.771,0 77,3.864 77,9.999 C77,16.133 72.77,20 66.151,20 C59.53,20 55.303,16.133 55.303,9.999 C55.303,3.864 59.53,0 66.15,0 L66.151,0 Z" id="Shape"></path>
        </g>
    </g>
</svg>