<?xml version="1.0" encoding="UTF-8"?>
<svg width="18px" height="18px" viewBox="0 0 18 18" version="1.1" xmlns="http://www.w3.org/2000/svg" xmlns:xlink="http://www.w3.org/1999/xlink">
    <title>Settings</title>
    <g id="Recherches" stroke="none" stroke-width="1" fill="none" fill-rule="evenodd" stroke-linejoin="round">
        <g id="icons" transform="translate(-1056.000000, -151.000000)" stroke="#FFFFFF" stroke-width="1.2">
            <g id="Settings" transform="translate(1057.000000, 151.000000)">
                <line x1="13.6853217" y1="8.22349565" x2="13.6853217" y2="17.2344522" id="Stroke-640"></line>
                <line x1="13.6853217" y1="0.000782608695" x2="13.6853217" y2="4.24878261" id="Stroke-641"></line>
                <path d="M15.6728348,6.23606087 C15.6728348,7.33327826 14.7830087,8.22388696 13.6850087,8.22388696 C12.5877913,8.22388696 11.6979652,7.33327826 11.6979652,6.23606087 C11.6979652,5.13884348 12.5877913,4.24823478 13.6850087,4.24823478 C14.7830087,4.24823478 15.6728348,5.13884348 15.6728348,6.23606087 Z" id="Stroke-642"></path>
                <path d="M3.98566957,3.1820087 C3.98566957,4.27922609 3.09584348,5.16905217 1.99784348,5.16905217 C0.900626087,5.16905217 0.0108,4.27922609 0.0108,3.1820087 C0.0108,2.0840087 0.900626087,1.19418261 1.99784348,1.19418261 C3.09584348,1.19418261 3.98566957,2.0840087 3.98566957,3.1820087 Z" id="Stroke-643"></path>
                <path d="M9.8136,12.5722174 C9.8136,13.6702174 8.92377391,14.5600435 7.82577391,14.5600435 C6.72855652,14.5600435 5.83873043,13.6702174 5.83873043,12.5722174 C5.83873043,11.475 6.72855652,10.5851739 7.82577391,10.5851739 C8.92377391,10.5851739 9.8136,11.475 9.8136,12.5722174 Z" id="Stroke-644"></path>
                <line x1="1.99815652" y1="5.16913043" x2="1.99815652" y2="17.2346087" id="Stroke-645"></line>
                <line x1="1.99815652" y1="0.000782608695" x2="1.99815652" y2="1.19426087" id="Stroke-646"></line>
                <line x1="7.82608696" y1="14.5596522" x2="7.82608696" y2="17.2346087" id="Stroke-647"></line>
                <line x1="7.82608696" y1="0.000782608695" x2="7.82608696" y2="10.5847826" id="Stroke-648"></line>
            </g>
        </g>
    </g>
</svg>