<svg version="1" xmlns="http://www.w3.org/2000/svg" width="360" height="360" viewBox="0 0 270.000000 270.000000"><path d="M81.2 42.2c-12.4 7.1-14 8.2-12.5 9.3 1 .7 7.6 4.4 14.6 8.4l12.9 7.2 12.1-6.8c6.7-3.8 13-7.3 14.1-7.8 2.1-1.1 3.4-3.5 1.8-3.5-.5 0-7.1-3.4-14.5-7.5-7.5-4.1-13.7-7.5-13.9-7.4-.2 0-6.7 3.7-14.6 8.1zM62 139.4v81.1l9.8 5.5c5.3 3 12 6.6 14.8 8.1l5 2.6V74.5l-14.8-8.1L62 58.2v81.2zM115 66.7c-7.4 4.1-13.6 7.7-13.8 7.8-.4.4-.4 161.6 0 162 .2.1 6.8-3.4 14.8-7.9l14.5-8.1v-80.8c0-53.4-.3-80.7-1-80.7-.5.1-7.1 3.5-14.5 7.7zM170.5 121.3c-5.2 3.2-9.7 5.7-17 9.7-4.4 2.4-9.3 5.2-11 6.2l-3 1.8v16c0 8.8.3 16 .7 16 .4 0 12.6-6.6 27-14.7 14.5-8.1 28.5-15.9 31.2-17.4l4.9-2.7-2.4-1.5c-5.8-3.5-26.7-14.7-27.5-14.6-.5 0-1.8.6-2.9 1.2zM201.5 147.4c-3.3 1.8-13.9 7.7-23.5 13.1-16 9-24.1 13.4-34.2 18.9-2.4 1.2-3.8 2.7-3.9 4-.1 1.2-.2 8.7-.3 16.8l-.1 14.6 5.5-3c3-1.6 18.4-10.2 34.3-19l28.7-16v-16.4c0-9-.1-16.4-.2-16.4-.2.1-3 1.6-6.3 3.4z"/></svg>