<?xml version="1.0" encoding="UTF-8"?><svg xmlns="http://www.w3.org/2000/svg" xmlns:xlink="http://www.w3.org/1999/xlink"><symbol viewBox="0 0 80 81" id="_marker" xmlns="http://www.w3.org/2000/svg"><g transform="translate(0 .782)" fill="none" fill-rule="evenodd"><circle fill="#0B2819" cx="40" cy="40" r="40"/><path d="M40 55l-8.485-9.515C29.172 42.038 28 39.21 28 37c0-6.627 5.373-12 12-12s12 5.373 12 12c0 2.21-1.172 5.038-3.515 8.485L40 55zm0-12a6 6 0 100-12 6 6 0 000 12z" fill="#75ECAD"/></g></symbol><symbol viewBox="0 0 12 12" id="arrow" xmlns="http://www.w3.org/2000/svg"><g stroke="currentColor" stroke-width=".8" fill="none" fill-rule="evenodd"><path d="M1 6l5-5 5 5M6 1v11"/></g></symbol><symbol viewBox="0 0 20 17" id="burger-icon" xmlns="http://www.w3.org/2000/svg"><g fill-rule="nonzero" fill="currentColor"><path d="M19 14.5a1 1 0 010 2H4a1 1 0 010-2h15zM19 7.5a1 1 0 010 2H8a1 1 0 110-2h11zM19 .5a1 1 0 010 2H1a1 1 0 110-2h18z"/></g></symbol><symbol viewBox="0 0 15 26" id="carousel-arrow" xmlns="http://www.w3.org/2000/svg"><g fill="#75ECAD" fill-rule="nonzero"><path d="M.94 3.06A1.5 1.5 0 013.06.94l11 11a1.5 1.5 0 01-2.12 2.12l-11-11z"/><path d="M14.06 14.06a1.5 1.5 0 00-2.12-2.12l-11 11a1.5 1.5 0 002.12 2.12l11-11z"/></g></symbol><symbol viewBox="0 0 17 15" id="check" xmlns="http://www.w3.org/2000/svg"><path d="M1 7.428L5.758 13 16 1" stroke="#FFF" stroke-width="1.5" fill="none" fill-rule="evenodd"/></symbol><symbol viewBox="0 0 92 92" id="dot" xmlns="http://www.w3.org/2000/svg"><defs><circle id="fc" cx="32" cy="32" r="32"/><circle id="fb" cx="32" cy="32" r="8"/><filter x="-131.2%" y="-131.2%" width="362.5%" height="362.5%" filterUnits="objectBoundingBox" id="fa"><feOffset in="SourceAlpha" result="shadowOffsetOuter1"/><feGaussianBlur stdDeviation="7" in="shadowOffsetOuter1" result="shadowBlurOuter1"/><feColorMatrix values="0 0 0 0 0 0 0 0 0 0 0 0 0 0 0 0 0 0 0.199699955 0" in="shadowBlurOuter1"/></filter></defs><g fill="none" fill-rule="evenodd"><g opacity=".602"><use fill="#000" filter="url(#fa)" xlink:href="#fb"/><use fill="#FFF" xlink:href="#fb"/></g><g transform="translate(32 32)"><circle opacity=".15" r="32" fill="#fff"><animateTransform attributeName="transform" type="scale" additive="sum" from="0 0" to="1 1" begin="0s" dur="3s" repeatCount="indefinite"/><animate attributeName="opacity" from=".5" to="0" begin="0s" dur="3s" repeatCount="indefinite"/></circle></g><g transform="translate(32 32)"><circle opacity=".15" r="32" fill="#fff"><animateTransform attributeName="transform" type="scale" additive="sum" from="0 0" to="1 1" begin="1s" dur="3s" repeatCount="indefinite"/><animate attributeName="opacity" from=".5" to="0" begin="1s" dur="3s" repeatCount="indefinite"/></circle></g><g transform="translate(32 32)"><circle opacity=".15" r="32" fill="#fff"><animateTransform attributeName="transform" type="scale" additive="sum" from="0 0" to="1 1" begin="2s" dur="3s" repeatCount="indefinite"/><animate attributeName="opacity" from=".5" to="0" begin="2s" dur="3s" repeatCount="indefinite"/></circle></g></g></symbol><symbol viewBox="0 0 26 25" id="filter-type" xmlns="http://www.w3.org/2000/svg"><g stroke="#FFF" fill="none" fill-rule="evenodd" stroke-linejoin="round"><path d="M9.83 1l8.8 8-8.8 8.167L1 9.134z"/><path d="M18.63 9L25 10.734l-8.8-8L9.8 1z"/><path d="M25 10.734L18.63 9 9.8 17.134v7.2l15.2-4zM1 9.134l8.8 8v7.2l-8.8-8z"/></g></symbol><symbol viewBox="0 0 17 24" id="logo" xmlns="http://www.w3.org/2000/svg"><path d="M3.985 0l3.453 1.95-3.454 1.949-3.453-1.95L3.985 0zM0 22.052V2.857l3.453 1.948V24L0 22.052zM4.516 4.805l3.453-1.948v19.195L4.516 24V4.805zM9.03 17.486L17 12.987v3.9l-7.969 4.498v-3.899zm0-1.208V12.38l3.985-2.249 3.453 1.95-7.438 4.198z" fill="currentColor" fill-rule="nonzero"/></symbol><symbol viewBox="0 0 77 20" id="logo-inline" xmlns="http://www.w3.org/2000/svg"><path d="M0 .531h5.988v14.135h9.014v4.8H0V.531zm17.452 0h15.946v4.24H23.44V7.84h9.51v4.026h-9.51v3.36h10.144v4.24H17.452V.531zm31.825 0h6.934l-7.04 7.68 7.277 11.255h-6.806l-4.7-7.413-2.366 2.506v4.907h-5.988V.531h5.988v7.415l6.7-7.415h.001zm16.874 4.03c-2.836 0-4.623 2.078-4.623 5.438 0 3.362 1.787 5.44 4.623 5.44 2.839 0 4.624-2.078 4.624-5.44 0-3.36-1.785-5.439-4.624-5.439v.001zm0-4.561C72.771 0 77 3.864 77 9.999 77 16.133 72.77 20 66.151 20c-6.621 0-10.848-3.867-10.848-10.001C55.303 3.864 59.53 0 66.15 0h.001z" fill="currentColor" fill-rule="evenodd"/></symbol><symbol viewBox="0 0 164 164" id="marker" xmlns="http://www.w3.org/2000/svg"><defs><filter x="-96.2%" y="-68.8%" width="292.5%" height="292.5%" filterUnits="objectBoundingBox" id="ja"><feOffset dy="22" in="SourceAlpha" result="shadowOffsetOuter1"/><feGaussianBlur stdDeviation="22" in="shadowOffsetOuter1" result="shadowBlurOuter1"/><feColorMatrix values="0 0 0 0 0 0 0 0 0 0 0 0 0 0 0 0 0 0 0.12 0" in="shadowBlurOuter1"/></filter><circle id="jb" cx="40" cy="40" r="40"/></defs><g fill="none" fill-rule="evenodd"><g transform="translate(42 19.782)"><use fill="#000" filter="url(#ja)" xlink:href="#jb"/><use fill="#0B2819" xlink:href="#jb"/></g><path d="M82 74.782l-8.485-9.515C71.172 61.819 70 58.991 70 56.782c0-6.628 5.373-12 12-12s12 5.372 12 12c0 2.209-1.172 5.037-3.515 8.485L82 74.782zm0-12a6 6 0 100-12 6 6 0 000 12z" fill="#75ECAD"/></g></symbol><symbol viewBox="0 0 24 24" id="player" xmlns="http://www.w3.org/2000/svg"><path d="M12 24C5.373 24 0 18.627 0 12S5.373 0 12 0s12 5.373 12 12-5.373 12-12 12zM10 8v8l6-4-6-4z" fill="#FFF" fill-rule="nonzero"/></symbol><symbol viewBox="0 0 18 18" id="settings-icon" xmlns="http://www.w3.org/2000/svg"><g stroke="#FFF" stroke-width="1.2" fill="none" fill-rule="evenodd" stroke-linejoin="round"><path d="M14.685 8.223v9.011M14.685.001v4.248M16.673 6.236a1.988 1.988 0 11-3.976 0 1.988 1.988 0 013.976 0zM4.986 3.182a1.987 1.987 0 11-3.975 0 1.987 1.987 0 013.975 0zM10.814 12.572a1.988 1.988 0 11-3.976 0 1.988 1.988 0 013.976 0zM2.998 5.169v12.066M2.998.001v1.193M8.826 14.56v2.675M8.826.001v10.584"/></g></symbol></svg>